<svg id="Calque_1" data-name="Calque 1" xmlns="http://www.w3.org/2000/svg" xmlns:xlink="http://www.w3.org/1999/xlink" viewBox="0 0 692.26 525.9"><defs><style>.cls-1{fill:url(#Dégradé_sans_nom_7);}.cls-2{fill:url(#Dégradé_sans_nom_2);}</style><linearGradient id="Dégradé_sans_nom_7" x1="134.53" y1="185.89" x2="674.26" y2="185.89" gradientUnits="userSpaceOnUse"><stop offset="0" stop-color="#ff6f6f"/><stop offset="1" stop-color="red"/></linearGradient><linearGradient id="Dégradé_sans_nom_2" x1="33.4" y1="340.01" x2="573.12" y2="340.01" gradientUnits="userSpaceOnUse"><stop offset="0.02"/><stop offset="0.13" stop-color="#050505"/><stop offset="0.26" stop-color="#151515"/><stop offset="0.41" stop-color="#2f2f2f"/><stop offset="0.57" stop-color="#535353"/><stop offset="0.73" stop-color="#818281"/><stop offset="0.9" stop-color="#b9b9b9"/><stop offset="0.93" stop-color="#c1c2c1"/></linearGradient></defs><title>Logo</title><path class="cls-1" d="M263.07,216.19c20.22,30.11,72.58,55.74,72.4,84.21-.18,30-77.08,64.28-129.45,63.37-18.81-.34-34.64-10.27-47.23-25-13-15.18-20.6-34.2-22.77-54q-1.29-11.89-1.46-24.09C132.69,117.71,242.33,8,385.27,8c142.42,0,259.92,70.86,289,185.1-27.2-14.5-122.84-60.51-242.76-60.51C289.15,132.57,247.27,192.66,263.07,216.19Z"/><path class="cls-2" d="M429.19,309.71C409,279.6,356.61,254,356.79,225.5c.18-30,77.08-64.28,129.44-63.37,18.82.34,34.65,10.27,47.24,25,13,15.19,20.6,34.2,22.77,54q1.29,11.9,1.46,24.09C559.57,408.19,449.93,517.92,307,517.92c-142.42,0-259.92-70.86-289-185.1,27.2,14.5,122.84,60.51,242.76,60.51C403.11,393.33,445,333.24,429.19,309.71Z"/></svg>